
        <svg xmlns="http://www.w3.org/2000/svg" xmlns:xlink="http://www.w3.org/1999/xlink" version="1.1" width="3200" 
        height="831.3503920251461" viewBox="0 0 3200 831.3503920251461">
			<rect fill="#ffffff" width="3200" height="831.3503920251461"/>
			<g transform="scale(10) translate(10, 10)">
				<defs id="SvgjsDefs1066"></defs><g id="SvgjsG1067" featureKey="symbolFeature-0" transform="matrix(0.091033222069889,0,0,0.091033222069889,0,0.8306784986519204)" fill="#88304e"><g xmlns="http://www.w3.org/2000/svg">    <path d="M587.1,45.8c-52.2,0-103.5,13.8-148.2,40.5c-43.8-25.9-95.1-40.5-147.2-40.5C130.8,45.8,0,176.5,0,337.4         c0,160.9,130.8,291.7,291.7,291.7c52,0,103.1-13.7,147.7-40.2c44.6,26.5,95.7,40.2,147.7,40.2c160.9,0,291.7-130.8,291.7-291.7         C878.8,176.5,748,45.8,587.1,45.8z M439.4,559.9c-46.1-30.9-80.6-74-100.4-123.3l113.7,113.7C448.4,553.6,443.9,556.8,439.4,559.9z          M473.4,532.7L323.8,383.2c-2.6-15-3.9-30.3-3.9-45.8c0-3.6,0.1-7.2,0.2-10.8l178.4,179.1C490.8,515.3,482.4,524.3,473.4,532.7z          M514.7,483.7L323.8,292.1c2.5-14.5,6.1-28.6,10.9-42.3l199.2,199.2C528.3,461,521.9,472.6,514.7,483.7z M544.6,421.5L345.8,222.6         c5.5-11.5,11.8-22.6,18.9-33.3l190.1,190.1C552.5,393.8,549.1,407.9,544.6,421.5z M380.9,167.4c7.9-9.6,16.5-18.7,25.8-27.3         l146.6,146.6c3.1,16.5,4.7,33.4,4.7,50.7c0,2.3,0,4.6-0.1,7L380.9,167.4z M427.6,122.8c3.7-2.8,7.6-5.5,11.5-8.2         c44.6,29.3,78.1,70.3,98,117.6L427.6,122.8z M24.5,337.4C24.5,189.7,144,70.2,291.7,70.2c44.2,0,86.6,10.3,125.1,31         c-76.2,54.6-120.4,142.1-120.4,236.2S341.6,519,416.8,573.6c-38.6,20.7-81.9,31-125.1,31C144,604.7,24.5,485.2,24.5,337.4z          M587.1,604.7c-44.2,0-86.6-10.3-125.1-31c76.2-54.6,120.4-142.1,120.4-236.2S538.2,155.8,462,101.3c38.6-20.7,80.9-31,125.1-31         c147.7,0,267.2,119.5,267.2,267.2C854.4,485.2,734.9,604.7,587.1,604.7z"></path></g></g><g id="SvgjsG1068" featureKey="nameFeature-0" transform="matrix(2.1710811337054663,0,0,2.1710811337054663,96.17889670775735,-25.53191462929732)" fill="#88304e"><path d="M21.6 40 l-19.84 0 l0 -28.24 l8.92 0 l0 21.12 l10.92 0 l0 7.12 z M45.2 31.119999999999997 l-14.44 0 s0 0.96 0.2 1.6 c0.28 0.8 1.08 2.32 3.28 2.28 c1.28 0 1.96 -0.44 2.36 -0.8 c0.84 -0.68 1.24 -1.6 1.4 -1.88 l6.76 2.84 c-0.2 0.32 -0.44 0.76 -1 1.4 c-1.44 1.68 -3.08 2.6 -3.8 2.96 c-1 0.48 -3.16 1.32 -6.12 1.32 c-1.72 0 -3.36 -0.24 -4.92 -0.88 c-4.28 -1.76 -6.56 -5.92 -6.56 -10.44 c0 -4.28 1.96 -6.92 3.16 -8.08 c2.96 -2.84 7.08 -3.04 8.24 -3.04 c1.4 0 5.64 0.2 8.64 3.44 c1 1.08 1.76 2.44 2.2 3.84 c0.56 1.8 0.6 3.56 0.6 5.44 z M36.84 26.759999999999998 c-0.04 -0.24 -0.04 -0.64 -0.2 -1.16 c-0.56 -1.72 -2.08 -1.96 -2.72 -1.96 c-0.64 0.04 -1.04 0.2 -1.28 0.32 c-1.52 0.68 -1.72 2.36 -1.8 2.8 l6 0 z M69.36 31.119999999999997 l-14.44 0 s0 0.96 0.2 1.6 c0.28 0.8 1.08 2.32 3.28 2.28 c1.28 0 1.96 -0.44 2.36 -0.8 c0.84 -0.68 1.24 -1.6 1.4 -1.88 l6.76 2.84 c-0.2 0.32 -0.44 0.76 -1 1.4 c-1.44 1.68 -3.08 2.6 -3.8 2.96 c-1 0.48 -3.16 1.32 -6.12 1.32 c-1.72 0 -3.36 -0.24 -4.92 -0.88 c-4.28 -1.76 -6.56 -5.92 -6.56 -10.44 c0 -4.28 1.96 -6.92 3.16 -8.08 c2.96 -2.84 7.08 -3.04 8.24 -3.04 c1.4 0 5.64 0.2 8.64 3.44 c1 1.08 1.76 2.44 2.2 3.84 c0.56 1.8 0.6 3.56 0.6 5.44 z M61 26.759999999999998 c-0.04 -0.24 -0.04 -0.64 -0.2 -1.16 c-0.56 -1.72 -2.08 -1.96 -2.72 -1.96 c-0.64 0.04 -1.04 0.2 -1.28 0.32 c-1.52 0.68 -1.72 2.36 -1.8 2.8 l6 0 z M93.88 40 l-8.24 0 l0 -11.32 c0 -0.48 0 -0.92 -0.12 -1.4 c-0.2 -0.72 -0.8 -1.72 -2.68 -1.72 c-3.04 0 -3 2.52 -3 3.4 l0 11.04 l-8.2 0 l0 -20.72 l7.76 0 l0 2.76 c0.52 -0.76 0.6 -0.84 1 -1.24 c1.52 -1.52 3.72 -2.08 5.84 -2.08 c0.76 0 3.32 0.04 5.28 1.72 c1.08 0.88 1.76 2.24 2.08 3.6 c0.16 0.68 0.28 1.4 0.28 2.88 l0 13.08 z"></path></g>
			</g>
		</svg>
	